<svg xmlns="http://www.w3.org/2000/svg" width="97.5" viewBox="0 0 97.5 75" height="75" version="1.0"><defs><clipPath id="a"><path d="M 6 2 L 93.75 2 L 93.75 73 L 6 73 Z M 6 2"/></clipPath><clipPath id="b"><path d="M 21 1.015625 L 82 1.015625 L 82 50 L 21 50 Z M 21 1.015625"/></clipPath><clipPath id="c"><path d="M 21 1.015625 L 82 1.015625 L 82 6 L 21 6 Z M 21 1.015625"/></clipPath><clipPath id="d"><path d="M 6 72 L 93.75 72 L 93.75 74.515625 L 6 74.515625 Z M 6 72"/></clipPath></defs><g clip-path="url(#a)"><path fill="#EBF2FF" d="M 92.535156 57.933594 C 91.320312 53.101562 88.792969 48.898438 87.792969 43.984375 C 86.859375 39.40625 87.296875 34.46875 87.808594 29.628906 C 88.316406 24.792969 88.890625 19.875 88.222656 15.210938 C 87.550781 10.546875 85.433594 6.078125 81.703125 4.101562 C 77.136719 1.679688 71.347656 3.433594 66.210938 5.574219 C 61.074219 7.71875 55.6875 10.28125 50.570312 9.371094 C 47.53125 8.828125 44.902344 7.101562 42.195312 5.660156 C 39.488281 4.214844 36.476562 3.019531 33.332031 3.636719 C 30.1875 4.253906 26.984375 7.261719 26.851562 10.765625 C 26.773438 12.851562 27.742188 14.671875 28.015625 16.691406 C 28.558594 20.730469 26.246094 24.992188 23.398438 28.054688 C 20.550781 31.117188 17.125 33.414062 14.257812 36.457031 C 5.566406 45.679688 3.78125 60.660156 9.277344 66.917969 C 11.890625 69.894531 15.90625 70.792969 19.738281 71.445312 C 22.21875 71.867188 24.714844 72.238281 27.21875 72.558594 L 89.253906 72.558594 C 89.304688 72.515625 89.355469 72.476562 89.402344 72.433594 C 93.234375 69.007812 93.753906 62.765625 92.535156 57.933594 Z M 92.535156 57.933594"/></g><path fill="#BBCAEA" d="M 26.832031 21.113281 C 26.6875 20.429688 26.417969 19.792969 26.046875 19.230469 L 26.726562 18.355469 L 25.320312 16.949219 L 24.449219 17.628906 C 23.886719 17.257812 23.253906 16.988281 22.574219 16.84375 L 22.433594 15.75 L 20.445312 15.75 L 20.304688 16.84375 C 19.621094 16.988281 18.988281 17.257812 18.425781 17.628906 L 17.550781 16.949219 L 16.152344 18.355469 L 16.828125 19.234375 C 16.460938 19.796875 16.191406 20.433594 16.046875 21.113281 L 14.953125 21.253906 L 14.953125 23.242188 L 16.046875 23.382812 C 16.191406 24.066406 16.460938 24.703125 16.828125 25.265625 L 16.152344 26.140625 L 17.550781 27.550781 L 18.429688 26.871094 C 18.992188 27.238281 19.625 27.507812 20.304688 27.652344 L 20.445312 28.746094 L 22.433594 28.746094 L 22.574219 27.652344 C 23.253906 27.507812 23.886719 27.238281 24.449219 26.871094 L 25.320312 27.550781 L 26.726562 26.140625 L 26.050781 25.265625 C 26.417969 24.703125 26.6875 24.066406 26.832031 23.382812 L 27.921875 23.242188 L 27.921875 21.253906 Z M 21.433594 26.65625 C 19.003906 26.65625 17.039062 24.6875 17.039062 22.246094 C 17.039062 19.808594 19.003906 17.839844 21.433594 17.839844 C 23.871094 17.839844 25.835938 19.808594 25.835938 22.246094 C 25.835938 24.6875 23.871094 26.65625 21.433594 26.65625 Z M 21.433594 26.65625"/><path fill="#BBCAEA" d="M 85.988281 37.585938 C 85.867188 37.007812 85.640625 36.46875 85.328125 35.992188 L 85.902344 35.253906 L 84.714844 34.066406 L 83.976562 34.636719 C 83.5 34.324219 82.964844 34.097656 82.390625 33.976562 L 82.269531 33.050781 L 80.589844 33.050781 L 80.472656 33.976562 C 79.894531 34.097656 79.355469 34.324219 78.882812 34.636719 L 78.144531 34.066406 L 76.960938 35.253906 L 77.53125 35.996094 C 77.222656 36.472656 76.996094 37.007812 76.871094 37.585938 L 75.945312 37.703125 L 75.945312 39.382812 L 76.871094 39.503906 C 76.996094 40.082031 77.222656 40.621094 77.53125 41.09375 L 76.960938 41.835938 L 78.144531 43.027344 L 78.886719 42.453125 C 79.359375 42.765625 79.898438 42.992188 80.472656 43.113281 L 80.589844 44.039062 L 82.269531 44.039062 L 82.390625 43.113281 C 82.964844 42.992188 83.5 42.765625 83.976562 42.453125 L 84.714844 43.027344 L 85.902344 41.835938 L 85.332031 41.09375 C 85.640625 40.621094 85.867188 40.082031 85.988281 39.503906 L 86.914062 39.382812 L 86.914062 37.703125 Z M 81.425781 42.117188 C 79.457031 42.117188 77.863281 40.519531 77.863281 38.542969 C 77.863281 36.570312 79.457031 34.972656 81.425781 34.972656 C 83.402344 34.972656 84.992188 36.570312 84.992188 38.542969 C 84.992188 40.519531 83.402344 42.117188 81.425781 42.117188 Z M 81.425781 42.117188"/><g clip-path="url(#b)"><path fill="#D1DCF8" d="M 78.925781 1.007812 L 23.941406 1.007812 C 22.558594 1.007812 21.4375 2.132812 21.4375 3.515625 L 21.4375 47.171875 C 21.4375 48.554688 22.558594 49.679688 23.941406 49.679688 L 78.925781 49.679688 C 80.308594 49.679688 81.429688 48.554688 81.429688 47.171875 L 81.429688 3.515625 C 81.429688 2.132812 80.308594 1.007812 78.925781 1.007812 Z M 78.925781 1.007812"/></g><path fill="#5CB8FC" d="M 59.285156 23.6875 L 54.84375 23.6875 C 54.054688 23.6875 53.414062 24.332031 53.414062 25.121094 L 53.414062 29.570312 C 53.414062 30.363281 54.054688 31.003906 54.84375 31.003906 L 59.285156 31.003906 C 60.074219 31.003906 60.714844 30.363281 60.714844 29.570312 L 60.714844 25.121094 C 60.714844 24.332031 60.074219 23.6875 59.285156 23.6875 Z M 59.285156 23.6875"/><path fill="#BBCAEA" d="M 53.285156 10.050781 L 53.285156 18.8125 C 53.285156 19.671875 53.980469 20.371094 54.839844 20.371094 L 77.078125 20.371094 C 77.9375 20.371094 78.632812 19.671875 78.632812 18.8125 L 78.632812 10.050781 C 78.632812 9.191406 77.9375 8.492188 77.078125 8.492188 L 54.839844 8.492188 C 53.980469 8.492188 53.285156 9.191406 53.285156 10.050781 Z M 53.285156 10.050781"/><path fill="#D1DCF8" d="M 55.972656 10.144531 L 75.945312 10.144531 L 75.945312 10.929688 L 55.972656 10.929688 Z M 55.972656 10.144531"/><path fill="#D1DCF8" d="M 55.972656 12.113281 L 63.253906 12.113281 L 63.253906 12.902344 L 55.972656 12.902344 Z M 55.972656 12.113281"/><path fill="#D1DCF8" d="M 55.972656 14.085938 L 73.976562 14.085938 L 73.976562 14.875 L 55.972656 14.875 Z M 55.972656 14.085938"/><path fill="#D1DCF8" d="M 55.972656 16.058594 L 61.214844 16.058594 L 61.214844 16.84375 L 55.972656 16.84375 Z M 55.972656 16.058594"/><path fill="#D1DCF8" d="M 65.71875 12.113281 L 70.394531 12.113281 L 70.394531 12.902344 L 65.71875 12.902344 Z M 65.71875 12.113281"/><g clip-path="url(#c)"><path fill="#38297A" d="M 78.925781 1.007812 L 23.941406 1.007812 C 22.558594 1.007812 21.4375 2.128906 21.4375 3.515625 L 21.4375 5.851562 L 81.429688 5.851562 L 81.429688 3.515625 C 81.429688 2.128906 80.308594 1.007812 78.925781 1.007812 Z M 78.925781 1.007812"/></g><path fill="#D1DCF8" d="M 24.699219 2.929688 L 45.738281 2.929688 L 45.738281 4.136719 L 24.699219 4.136719 Z M 24.699219 2.929688"/><path fill="#D1DCF8" d="M 76.929688 3.511719 C 76.929688 3.859375 77.210938 4.136719 77.558594 4.136719 C 77.902344 4.136719 78.183594 3.859375 78.183594 3.511719 C 78.183594 3.164062 77.902344 2.882812 77.558594 2.882812 C 77.210938 2.882812 76.929688 3.164062 76.929688 3.511719 Z M 76.929688 3.511719"/><path fill="#D1DCF8" d="M 74.4375 3.511719 C 74.4375 3.859375 74.71875 4.136719 75.066406 4.136719 C 75.410156 4.136719 75.691406 3.859375 75.691406 3.511719 C 75.691406 3.164062 75.410156 2.882812 75.066406 2.882812 C 74.71875 2.882812 74.4375 3.164062 74.4375 3.511719 Z M 74.4375 3.511719"/><path fill="#D1DCF8" d="M 71.945312 3.511719 C 71.945312 3.859375 72.226562 4.136719 72.574219 4.136719 C 72.917969 4.136719 73.199219 3.859375 73.199219 3.511719 C 73.199219 3.164062 72.917969 2.882812 72.574219 2.882812 C 72.226562 2.882812 71.945312 3.164062 71.945312 3.511719 Z M 71.945312 3.511719"/><path fill="#38297A" d="M 63.117188 21.808594 L 63.457031 21.808594 L 63.457031 72.042969 L 63.117188 72.042969 Z M 63.117188 21.808594"/><path fill="#38297A" d="M 74.132812 21.808594 L 74.472656 21.808594 L 74.472656 72.042969 L 74.132812 72.042969 Z M 74.132812 21.808594"/><path fill="#38297A" d="M 63.285156 24.757812 L 74.300781 24.757812 L 74.300781 25.097656 L 63.285156 25.097656 Z M 63.285156 24.757812"/><path fill="#38297A" d="M 63.285156 29.132812 L 74.300781 29.132812 L 74.300781 29.476562 L 63.285156 29.476562 Z M 63.285156 29.132812"/><path fill="#38297A" d="M 63.285156 37.886719 L 74.300781 37.886719 L 74.300781 38.226562 L 63.285156 38.226562 Z M 63.285156 37.886719"/><path fill="#38297A" d="M 63.285156 46.636719 L 74.300781 46.636719 L 74.300781 46.976562 L 63.285156 46.976562 Z M 63.285156 46.636719"/><path fill="#38297A" d="M 63.285156 33.507812 L 74.300781 33.507812 L 74.300781 33.851562 L 63.285156 33.851562 Z M 63.285156 33.507812"/><path fill="#38297A" d="M 63.285156 42.261719 L 74.300781 42.261719 L 74.300781 42.601562 L 63.285156 42.601562 Z M 63.285156 42.261719"/><path fill="#38297A" d="M 63.285156 51.011719 L 74.300781 51.011719 L 74.300781 51.351562 L 63.285156 51.351562 Z M 63.285156 51.011719"/><path fill="#38297A" d="M 63.285156 55.386719 L 74.300781 55.386719 L 74.300781 55.726562 L 63.285156 55.726562 Z M 63.285156 55.386719"/><path fill="#38297A" d="M 63.285156 59.761719 L 74.300781 59.761719 L 74.300781 60.101562 L 63.285156 60.101562 Z M 63.285156 59.761719"/><path fill="#38297A" d="M 63.285156 64.136719 L 74.300781 64.136719 L 74.300781 64.480469 L 63.285156 64.480469 Z M 63.285156 64.136719"/><path fill="#38297A" d="M 63.285156 68.515625 L 74.300781 68.515625 L 74.300781 68.855469 L 63.285156 68.855469 Z M 63.285156 68.515625"/><path fill="#F4A998" d="M 70.289062 25.621094 L 70.089844 27.625 L 70 29.019531 C 72.621094 29.925781 74.066406 29.433594 73.855469 26.976562 L 73.042969 24.679688 L 71.101562 22.25 L 70.597656 23.542969 Z M 70.289062 25.621094"/><path fill="#F2C3B3" d="M 56.164062 31.507812 C 56.609375 32.234375 58.347656 32.070312 58.347656 32.070312 C 58.347656 32.070312 62.34375 37.042969 64.9375 36.585938 C 66.71875 36.269531 68.359375 32.265625 68.359375 32.265625 L 65.609375 31.777344 C 65.46875 31.917969 63.722656 33.960938 63.722656 33.960938 L 58.765625 30.542969 C 58.765625 30.542969 57.925781 28.585938 57.65625 28.984375 C 57.390625 29.363281 57.804688 29.976562 57.835938 30.027344 C 57.734375 29.960938 55.425781 28.578125 55.375 29.074219 C 55.320312 29.578125 56.648438 30.148438 56.648438 30.148438 C 56.648438 30.148438 55.71875 30.785156 56.164062 31.507812 Z M 56.164062 31.507812"/><path fill="#F2C3B3" d="M 82.574219 27.542969 L 79.214844 30.496094 L 77.863281 28.023438 L 80.679688 26.136719 C 80.960938 25.949219 81.039062 25.570312 80.851562 25.285156 L 79.519531 22.886719 L 79.515625 22.886719 C 79.308594 22.609375 79.121094 22.414062 78.980469 22.355469 C 78.214844 22.019531 76.988281 22.769531 76.953125 22.179688 C 76.929688 21.855469 78.085938 21.5 78.085938 21.5 C 78.085938 21.5 77.125 20.660156 77.253906 20.207031 C 77.394531 19.730469 78.109375 19.226562 78.734375 19.359375 C 79.15625 19.449219 79.46875 19.996094 79.714844 20.367188 C 80.210938 21.101562 80.25 21.609375 80.585938 22.09375 L 82.851562 25.0625 C 83.410156 25.839844 83.292969 26.914062 82.574219 27.542969 Z M 82.574219 27.542969"/><path fill="#FE4C40" d="M 79.347656 26.882812 C 78.464844 27.195312 77.730469 27.65625 77.34375 27.660156 C 76.058594 27.683594 75.378906 27.417969 74.144531 27.0625 L 73.855469 26.976562 C 73.800781 27.261719 72.453125 28.261719 70.089844 27.625 L 68.265625 28.773438 C 68.265625 28.773438 66.171875 29.441406 64.605469 32.648438 C 64.863281 33.457031 66.117188 34.398438 66.972656 34.875 L 67.050781 45.207031 C 70.410156 46.261719 73.769531 46.261719 77.128906 45.207031 L 77.6875 31.203125 C 79.851562 30.390625 80.691406 29.441406 80.691406 29.441406 C 80.742188 28.136719 80.226562 27.558594 79.347656 26.882812 Z M 79.347656 26.882812"/><path fill="#F2C3B3" d="M 68.152344 24.105469 C 68.167969 24.019531 68.425781 23.347656 68.40625 23.046875 C 68.316406 21.734375 68.09375 20.25 68.644531 19.746094 C 69.328125 19.117188 72.175781 20.382812 72.175781 20.382812 L 72.957031 24.265625 C 72.957031 24.265625 70.863281 27.171875 69.734375 26.523438 C 69.429688 26.347656 69.152344 25.867188 68.929688 25.234375 C 68.855469 25.023438 68.738281 24.625 68.695312 24.410156 C 68.664062 24.394531 68.085938 24.523438 68.152344 24.105469 Z M 68.152344 24.105469"/><path fill="#20154F" d="M 70.222656 19.035156 C 69.609375 18.949219 69.085938 18.894531 68.632812 18.875 C 67.933594 18.839844 67.335938 19.425781 67.335938 20.144531 C 67.335938 21.253906 67.984375 21.351562 68.984375 21.742188 C 69.527344 21.949219 70.273438 22.152344 70.273438 22.152344 L 70.519531 23.378906 L 70.804688 23.441406 C 70.9375 22.941406 70.808594 22.042969 71.328125 22.203125 C 71.957031 22.398438 71.355469 23.191406 71.59375 24.140625 C 71.636719 24.320312 71.691406 24.730469 71.757812 25.144531 C 71.84375 25.660156 72.25 26.039062 72.734375 26.074219 C 72.839844 26.082031 72.949219 26.082031 73.058594 26.078125 C 73.488281 26.058594 73.855469 25.726562 73.980469 25.28125 C 74.375 23.894531 74.667969 21.714844 74.671875 20.976562 C 74.679688 18.578125 71.304688 19.191406 70.222656 19.035156 Z M 70.222656 19.035156"/><path fill="#20154F" d="M 68.832031 24.914062 C 68.863281 25.023438 68.894531 25.136719 68.929688 25.234375 C 68.929688 25.234375 69.386719 25.078125 69.445312 24.582031 C 69.445312 24.582031 69.152344 24.875 68.832031 24.914062 Z M 68.832031 24.914062"/><path fill="#20154F" d="M 68.84375 22.375 C 68.964844 22.378906 69.019531 22.46875 69.015625 22.636719 C 69.011719 22.808594 68.949219 22.890625 68.828125 22.886719 C 68.710938 22.882812 68.652344 22.796875 68.660156 22.628906 C 68.664062 22.457031 68.726562 22.371094 68.84375 22.375 Z M 68.84375 22.375"/><path fill="#20154F" d="M 69.085938 22.210938 C 68.972656 22.109375 68.8125 22.089844 68.683594 22.160156 C 68.640625 22.183594 68.589844 22.167969 68.570312 22.128906 C 68.546875 22.085938 68.5625 22.035156 68.601562 22.011719 C 68.796875 21.90625 69.03125 21.933594 69.199219 22.085938 C 69.234375 22.117188 69.238281 22.167969 69.207031 22.203125 C 69.175781 22.242188 69.121094 22.242188 69.085938 22.210938 Z M 69.085938 22.210938"/><path fill="#F2C3B3" d="M 73.996094 64.066406 L 73.996094 67.007812 C 73.996094 67.589844 75.5 67.589844 75.5 67.007812 L 75.988281 64.066406 Z M 73.996094 64.066406"/><path fill="#F2C3B3" d="M 67.199219 63.886719 L 67.648438 66.792969 C 67.734375 67.367188 69.222656 67.140625 69.132812 66.5625 L 69.164062 63.582031 Z M 67.199219 63.886719"/><path fill="#022E4F" d="M 67.316406 45.050781 C 67.238281 49.460938 66.957031 65.382812 66.957031 65.382812 C 67.707031 65.769531 68.554688 65.878906 69.5625 65.558594 L 71.921875 51.972656 L 73.472656 65.351562 C 74.558594 65.882812 75.5 65.875 76.292969 65.335938 L 76.84375 45.050781 Z M 67.316406 45.050781"/><path fill="#1C587E" d="M 72.972656 45.050781 L 67.316406 45.050781 C 67.238281 49.460938 66.957031 65.382812 66.957031 65.382812 C 67.707031 65.769531 68.554688 65.878906 69.5625 65.558594 L 71.921875 51.972656 C 72.660156 49.148438 72.957031 47.605469 72.972656 45.050781 Z M 72.972656 45.050781"/><path fill="#20154F" d="M 69.515625 65.9375 C 69.402344 65.847656 69.269531 65.792969 69.183594 65.90625 C 68.886719 66.3125 68.042969 66.941406 67.675781 66.089844 C 67.609375 65.941406 67.378906 65.972656 67.296875 66.113281 C 67.039062 66.542969 66.28125 67.199219 65.808594 67.367188 C 65.808594 67.367188 64.714844 67.730469 64.269531 67.582031 C 63.824219 67.433594 63.277344 68.976562 67.988281 68.636719 C 69.699219 68.511719 70.101562 68.125 70.117188 67.597656 C 70.121094 67.429688 69.609375 66.015625 69.515625 65.9375 Z M 69.515625 65.9375"/><path fill="#FE4C40" d="M 67.957031 68.269531 C 65.257812 68.464844 64.285156 68.042969 64.027344 67.671875 C 63.820312 67.988281 64.246094 68.90625 67.988281 68.636719 C 69.648438 68.515625 70.386719 68.238281 70.117188 67.597656 C 69.988281 67.984375 69.253906 68.175781 67.957031 68.269531 Z M 67.957031 68.269531"/><path fill="#20154F" d="M 75.960938 65.9375 C 75.851562 65.847656 75.71875 65.792969 75.632812 65.90625 C 75.332031 66.3125 74.492188 66.941406 74.121094 66.089844 C 74.058594 65.941406 73.828125 65.972656 73.742188 66.113281 C 73.484375 66.542969 72.730469 67.199219 72.257812 67.367188 C 72.257812 67.367188 71.160156 67.730469 70.714844 67.582031 C 70.269531 67.433594 69.722656 68.976562 74.4375 68.636719 C 76.144531 68.511719 76.546875 68.125 76.5625 67.597656 C 76.566406 67.429688 76.058594 66.015625 75.960938 65.9375 Z M 75.960938 65.9375"/><path fill="#FE4C40" d="M 74.402344 68.269531 C 71.707031 68.464844 70.730469 68.042969 70.472656 67.671875 C 70.269531 67.988281 70.691406 68.90625 74.4375 68.636719 C 76.09375 68.515625 76.832031 68.238281 76.5625 67.597656 C 76.433594 67.984375 75.703125 68.175781 74.402344 68.269531 Z M 74.402344 68.269531"/><path fill="#20154F" d="M 67.246094 44.730469 L 76.925781 44.730469 C 77.132812 44.730469 77.300781 44.898438 77.300781 45.105469 L 77.300781 45.734375 C 77.300781 45.941406 77.132812 46.109375 76.925781 46.109375 L 67.246094 46.109375 C 67.039062 46.109375 66.871094 45.941406 66.871094 45.734375 L 66.871094 45.105469 C 66.871094 44.898438 67.039062 44.730469 67.246094 44.730469 Z M 67.246094 44.730469"/><path fill="#FFF" d="M 24.34375 28.257812 L 24.34375 34.875 C 24.34375 35.867188 25.140625 36.671875 26.132812 36.671875 L 47.902344 36.671875 C 48.890625 36.671875 49.691406 35.867188 49.691406 34.875 L 49.691406 28.257812 C 49.691406 27.265625 48.890625 26.460938 47.902344 26.460938 L 26.132812 26.460938 C 25.140625 26.460938 24.34375 27.265625 24.34375 28.257812 Z M 24.34375 28.257812"/><path fill="#EBF2FF" d="M 33.910156 31.566406 C 33.910156 32.027344 33.824219 32.472656 33.648438 32.898438 C 33.46875 33.328125 33.21875 33.703125 32.894531 34.03125 C 32.566406 34.359375 32.191406 34.609375 31.765625 34.789062 C 31.335938 34.964844 30.894531 35.050781 30.433594 35.050781 C 29.972656 35.050781 29.527344 34.964844 29.101562 34.789062 C 28.675781 34.609375 28.296875 34.359375 27.972656 34.03125 C 27.644531 33.703125 27.394531 33.328125 27.21875 32.898438 C 27.042969 32.472656 26.953125 32.027344 26.953125 31.566406 C 26.953125 31.105469 27.042969 30.660156 27.21875 30.230469 C 27.394531 29.804688 27.644531 29.425781 27.972656 29.101562 C 28.296875 28.773438 28.675781 28.523438 29.101562 28.34375 C 29.527344 28.167969 29.972656 28.078125 30.433594 28.078125 C 30.894531 28.078125 31.335938 28.167969 31.765625 28.34375 C 32.191406 28.523438 32.566406 28.773438 32.894531 29.101562 C 33.21875 29.425781 33.46875 29.804688 33.648438 30.230469 C 33.824219 30.660156 33.910156 31.105469 33.910156 31.566406 Z M 33.910156 31.566406"/><path fill="#F4A998" d="M 30.773438 33.949219 C 29.789062 34.046875 29.578125 32.613281 29.578125 32.613281 C 29.578125 32.613281 29.628906 32.363281 29.640625 32.09375 C 29.65625 31.835938 29.636719 31.621094 29.636719 31.621094 L 31.128906 32.128906 C 31.128906 32.171875 31.128906 32.210938 31.136719 32.25 C 31.152344 32.425781 31.238281 32.53125 31.292969 32.613281 C 31.359375 32.707031 31.398438 32.757812 31.398438 32.757812 C 31.398438 32.757812 31.761719 33.851562 30.773438 33.949219 Z M 30.773438 33.949219"/><path fill="#F4A998" d="M 31.398438 32.757812 C 31.398438 32.757812 31.359375 32.707031 31.292969 32.613281 C 31.238281 32.53125 31.152344 32.425781 31.136719 32.25 C 31.128906 32.210938 31.128906 32.171875 31.128906 32.128906 L 30.261719 31.832031 L 30.261719 32.410156 L 29.625 32.835938 C 29.730469 33.234375 30.035156 34.023438 30.773438 33.949219 C 31.761719 33.851562 31.398438 32.757812 31.398438 32.757812 Z M 31.398438 32.757812"/><path fill="#FE4C40" d="M 33.1875 33.695312 C 32.554688 34.519531 31.554688 35.054688 30.433594 35.054688 C 29.324219 35.054688 28.339844 34.535156 27.703125 33.726562 C 27.925781 33.511719 28.1875 33.367188 28.472656 33.28125 L 29.671875 32.910156 C 29.847656 33.359375 30.074219 33.726562 30.4375 33.832031 C 30.796875 33.628906 31.027344 33.296875 31.199219 32.910156 C 32.667969 33.371094 32.839844 33.359375 33.1875 33.695312 Z M 33.1875 33.695312"/><path fill="#EA241F" d="M 30.433594 33.832031 L 31.335938 34.222656 L 31.882812 33.121094 L 31.292969 32.613281 C 31.035156 33.109375 30.75 33.515625 30.433594 33.832031 Z M 30.433594 33.832031"/><path fill="#EA241F" d="M 30.433594 33.832031 L 29.53125 34.222656 L 28.980469 33.121094 L 29.578125 32.613281 C 29.820312 33.082031 30.101562 33.492188 30.433594 33.832031 Z M 30.433594 33.832031"/><path fill="#F2C3B3" d="M 28.96875 30.285156 C 29.046875 30.289062 29.125 30.265625 29.1875 30.21875 C 29.257812 30.164062 29.304688 30.085938 29.316406 30.003906 C 29.398438 29.421875 29.773438 29.40625 30.207031 29.253906 C 30.800781 29.042969 31.464844 29.144531 31.675781 29.476562 C 32.097656 30.140625 31.949219 32.359375 30.808594 32.570312 C 29.542969 32.804688 28.972656 30.78125 28.851562 30.519531 C 28.828125 30.476562 28.816406 30.425781 28.816406 30.378906 L 28.816406 30.277344 Z M 28.96875 30.285156"/><path fill="#20154F" d="M 32.1875 29.210938 C 31.734375 29.195312 31.316406 28.929688 31.214844 28.875 C 31.089844 28.804688 30.960938 28.742188 30.824219 28.695312 C 29.425781 28.199219 28.679688 29.484375 28.679688 29.484375 C 28.1875 30.429688 29.390625 31.769531 29.445312 31.796875 C 29.4375 31.777344 29.300781 31.332031 29.300781 31.109375 C 29.199219 31.050781 28.914062 30.847656 29.019531 30.582031 C 29.132812 30.300781 29.382812 30.605469 29.488281 30.757812 C 29.609375 30.464844 29.601562 30.046875 29.601562 30.046875 C 30.230469 30.214844 30.796875 30.230469 31.265625 30.152344 C 31.65625 30.089844 32.183594 29.777344 32.324219 29.394531 C 32.355469 29.304688 32.285156 29.210938 32.1875 29.210938 Z M 32.1875 29.210938"/><path fill="#20154F" d="M 31.613281 30.925781 C 31.613281 31.039062 31.582031 31.09375 31.511719 31.09375 C 31.445312 31.09375 31.414062 31.039062 31.414062 30.925781 C 31.414062 30.816406 31.445312 30.761719 31.511719 30.761719 C 31.582031 30.761719 31.613281 30.816406 31.613281 30.925781 Z M 31.613281 30.925781"/><path fill="#20154F" d="M 30.632812 30.941406 C 30.632812 31.050781 30.597656 31.105469 30.53125 31.105469 C 30.464844 31.105469 30.433594 31.050781 30.433594 30.941406 C 30.433594 30.828125 30.464844 30.773438 30.53125 30.773438 C 30.597656 30.773438 30.632812 30.828125 30.632812 30.941406 Z M 30.632812 30.941406"/><path fill="#20154F" d="M 31.324219 30.472656 C 31.3125 30.457031 31.316406 30.4375 31.332031 30.425781 C 31.4375 30.347656 31.578125 30.34375 31.691406 30.410156 C 31.710938 30.417969 31.714844 30.441406 31.703125 30.457031 C 31.695312 30.472656 31.675781 30.476562 31.65625 30.46875 C 31.570312 30.414062 31.457031 30.417969 31.371094 30.480469 C 31.355469 30.492188 31.335938 30.488281 31.324219 30.472656 Z M 31.324219 30.472656"/><path fill="#20154F" d="M 30.53125 32.015625 C 30.53125 32.355469 31.050781 32.421875 31.175781 32.042969 C 30.992188 32.132812 30.695312 32.09375 30.53125 32.015625 Z M 30.53125 32.015625"/><path fill="#20154F" d="M 30.867188 31.746094 C 30.847656 31.742188 30.839844 31.722656 30.84375 31.703125 C 30.851562 31.6875 30.871094 31.675781 30.886719 31.683594 C 31.128906 31.761719 31.25 31.714844 31.125 31.488281 C 31.042969 31.339844 31.023438 31.105469 31.023438 31.097656 C 31.019531 31.078125 31.035156 31.0625 31.050781 31.058594 C 31.054688 31.058594 31.054688 31.058594 31.054688 31.058594 C 31.074219 31.058594 31.085938 31.074219 31.089844 31.089844 C 31.089844 31.09375 31.109375 31.320312 31.183594 31.457031 C 31.320312 31.699219 31.21875 31.863281 30.867188 31.746094 Z M 30.867188 31.746094"/><path fill="#20154F" d="M 30.292969 30.601562 C 30.28125 30.589844 30.285156 30.566406 30.300781 30.554688 C 30.402344 30.472656 30.542969 30.457031 30.660156 30.519531 C 30.675781 30.53125 30.683594 30.550781 30.671875 30.566406 C 30.664062 30.582031 30.644531 30.589844 30.628906 30.582031 C 30.535156 30.53125 30.421875 30.542969 30.34375 30.609375 C 30.328125 30.621094 30.304688 30.617188 30.292969 30.601562 Z M 30.292969 30.601562"/><path fill="#D1DCF8" d="M 35.921875 29.324219 L 47.082031 29.324219 L 47.082031 30.71875 L 35.921875 30.71875 Z M 35.921875 29.324219"/><path fill="#D1DCF8" d="M 35.921875 31.84375 L 47.082031 31.84375 L 47.082031 32.40625 L 35.921875 32.40625 Z M 35.921875 31.84375"/><path fill="#D1DCF8" d="M 35.921875 33.246094 L 39.988281 33.246094 L 39.988281 33.808594 L 35.921875 33.808594 Z M 35.921875 33.246094"/><path fill="#D1DCF8" d="M 41.367188 33.246094 L 43.980469 33.246094 L 43.980469 33.808594 L 41.367188 33.808594 Z M 41.367188 33.246094"/><path fill="#FFF" d="M 24.34375 10.050781 L 24.34375 22.398438 C 24.34375 23.257812 25.035156 23.953125 25.894531 23.953125 L 48.136719 23.953125 C 48.996094 23.953125 49.691406 23.257812 49.691406 22.398438 L 49.691406 10.050781 C 49.691406 9.191406 48.996094 8.492188 48.136719 8.492188 L 25.894531 8.492188 C 25.035156 8.492188 24.34375 9.191406 24.34375 10.050781 Z M 24.34375 10.050781"/><path fill="#EE984F" d="M 47.785156 9.734375 C 47.785156 9.960938 47.96875 10.144531 48.195312 10.144531 C 48.417969 10.144531 48.601562 9.960938 48.601562 9.734375 C 48.601562 9.507812 48.417969 9.324219 48.195312 9.324219 C 47.96875 9.324219 47.785156 9.507812 47.785156 9.734375 Z M 47.785156 9.734375"/><path fill="#EE984F" d="M 46.371094 9.734375 C 46.371094 9.960938 46.554688 10.144531 46.777344 10.144531 C 47.003906 10.144531 47.1875 9.960938 47.1875 9.734375 C 47.1875 9.507812 47.003906 9.324219 46.777344 9.324219 C 46.554688 9.324219 46.371094 9.507812 46.371094 9.734375 Z M 46.371094 9.734375"/><path fill="#EE984F" d="M 44.953125 9.734375 C 44.953125 9.960938 45.136719 10.144531 45.363281 10.144531 C 45.589844 10.144531 45.769531 9.960938 45.769531 9.734375 C 45.769531 9.507812 45.589844 9.324219 45.363281 9.324219 C 45.136719 9.324219 44.953125 9.507812 44.953125 9.734375 Z M 44.953125 9.734375"/><path fill="#7CD194" d="M 41.066406 16.375 C 41.066406 16.640625 41.039062 16.90625 40.988281 17.167969 C 40.9375 17.429688 40.859375 17.683594 40.757812 17.929688 C 40.65625 18.175781 40.53125 18.410156 40.382812 18.628906 C 40.234375 18.851562 40.066406 19.058594 39.878906 19.246094 C 39.691406 19.433594 39.488281 19.601562 39.265625 19.75 C 39.046875 19.898438 38.8125 20.023438 38.566406 20.125 C 38.320312 20.226562 38.066406 20.304688 37.804688 20.355469 C 37.546875 20.40625 37.28125 20.433594 37.015625 20.433594 C 36.75 20.433594 36.488281 20.40625 36.226562 20.355469 C 35.964844 20.304688 35.710938 20.226562 35.464844 20.125 C 35.222656 20.023438 34.988281 19.898438 34.765625 19.75 C 34.546875 19.601562 34.339844 19.433594 34.152344 19.246094 C 33.964844 19.058594 33.796875 18.851562 33.648438 18.628906 C 33.5 18.410156 33.375 18.175781 33.273438 17.929688 C 33.171875 17.683594 33.097656 17.429688 33.042969 17.167969 C 32.992188 16.90625 32.964844 16.640625 32.964844 16.375 C 32.964844 16.109375 32.992188 15.84375 33.042969 15.582031 C 33.097656 15.324219 33.171875 15.070312 33.273438 14.824219 C 33.375 14.574219 33.5 14.34375 33.648438 14.121094 C 33.796875 13.898438 33.964844 13.695312 34.152344 13.503906 C 34.339844 13.316406 34.546875 13.148438 34.765625 13 C 34.988281 12.851562 35.222656 12.726562 35.464844 12.625 C 35.710938 12.523438 35.964844 12.445312 36.226562 12.394531 C 36.488281 12.34375 36.75 12.316406 37.015625 12.316406 C 37.28125 12.316406 37.546875 12.34375 37.804688 12.394531 C 38.066406 12.445312 38.320312 12.523438 38.566406 12.625 C 38.8125 12.726562 39.046875 12.851562 39.265625 13 C 39.488281 13.148438 39.691406 13.316406 39.878906 13.503906 C 40.066406 13.695312 40.234375 13.898438 40.382812 14.121094 C 40.53125 14.34375 40.65625 14.574219 40.757812 14.824219 C 40.859375 15.070312 40.9375 15.324219 40.988281 15.582031 C 41.039062 15.84375 41.066406 16.109375 41.066406 16.375 Z M 41.066406 16.375"/><path fill="#FFF" d="M 35.917969 14.511719 L 38.992188 16.40625 L 35.925781 18.238281 Z M 35.917969 14.511719"/><path fill="#61BA76" d="M 47.785156 55.589844 C 47.1875 56 46.792969 56.765625 46.5625 57.597656 C 46.242188 58.757812 46.058594 61.199219 46.121094 62.058594 C 46.160156 62.667969 46.332031 64.320312 46.628906 64.832031 C 47.15625 65.75 47.496094 66.71875 48.488281 66.40625 C 49.515625 66.078125 50.609375 64.1875 49.886719 61.753906 C 49.660156 60.984375 48.964844 59.671875 48.988281 58.445312 C 49.003906 57.6875 49.390625 56.589844 48.925781 55.820312 C 48.578125 55.242188 48.125 55.351562 47.785156 55.589844 Z M 47.785156 55.589844"/><path fill="#7CD194" d="M 48.359375 66.820312 C 48.28125 66.835938 48.207031 66.785156 48.191406 66.707031 C 46.78125 59.539062 47.847656 56.90625 47.894531 56.796875 C 47.925781 56.722656 48.007812 56.6875 48.082031 56.71875 C 48.15625 56.75 48.1875 56.835938 48.160156 56.90625 C 48.148438 56.933594 47.085938 59.589844 48.472656 66.652344 C 48.488281 66.730469 48.4375 66.804688 48.359375 66.820312 Z M 48.359375 66.820312"/><path fill="#7CD194" d="M 53.042969 61.609375 C 53.25 60.914062 53.824219 60.398438 54.203125 59.785156 C 54.628906 59.101562 54.761719 58.09375 53.929688 57.527344 C 53.480469 57.21875 52.734375 57.1875 52.292969 57.414062 C 51.335938 57.894531 51.125 58.898438 51.035156 59.851562 C 50.964844 60.628906 50.941406 61.445312 50.558594 62.113281 C 50.402344 62.382812 49.519531 63.445312 48.785156 64.285156 C 48.242188 64.90625 48.148438 65.785156 48.542969 66.582031 C 49.011719 67.53125 50.398438 67.746094 50.976562 66.960938 C 51.308594 66.511719 51.65625 66.09375 51.96875 65.835938 C 53.714844 64.402344 52.632812 62.96875 53.042969 61.609375 Z M 53.042969 61.609375"/><path fill="#61BA76" d="M 49.917969 67.617188 C 49.917969 67.617188 49.917969 67.613281 49.917969 67.613281 C 49.996094 67.601562 50.046875 67.523438 50.03125 67.445312 C 49.839844 66.445312 50.304688 65.773438 50.847656 64.996094 C 51.335938 64.292969 51.839844 63.566406 51.898438 62.519531 C 52.019531 60.429688 52.882812 59.074219 52.890625 59.0625 C 52.933594 58.996094 52.917969 58.90625 52.851562 58.863281 C 52.78125 58.820312 52.695312 58.839844 52.652344 58.90625 C 52.613281 58.960938 51.738281 60.335938 51.613281 62.503906 C 51.492188 64.605469 49.347656 65.425781 49.75 67.5 C 49.765625 67.578125 49.839844 67.628906 49.917969 67.617188 Z M 49.917969 67.617188"/><path fill="#7CD194" d="M 43.519531 64.929688 C 43.171875 64.085938 43.359375 63.035156 42.957031 62.21875 C 42.636719 61.570312 41.984375 61.160156 41.507812 60.617188 C 40.976562 60.015625 40.675781 59.042969 41.398438 58.34375 C 41.792969 57.96875 42.519531 57.8125 42.996094 57.957031 C 44.894531 58.539062 44.421875 61.003906 45.492188 62.300781 C 45.691406 62.542969 46.738281 63.4375 47.597656 64.144531 C 48.238281 64.664062 48.476562 65.515625 48.222656 66.367188 C 47.921875 67.378906 46.589844 67.828125 45.886719 67.152344 C 45.488281 66.761719 45.070312 66.40625 44.722656 66.207031 C 44.1875 65.902344 43.746094 65.484375 43.519531 64.929688 Z M 43.519531 64.929688"/><path fill="#61BA76" d="M 47.042969 67.617188 C 47.042969 67.617188 47.039062 67.617188 47.039062 67.617188 C 46.960938 67.617188 46.898438 67.550781 46.898438 67.46875 C 46.921875 66.453125 46.351562 65.867188 45.6875 65.191406 C 45.089844 64.578125 44.46875 63.949219 44.234375 62.925781 C 43.765625 60.886719 42.691406 59.695312 42.679688 59.683594 C 42.550781 59.542969 42.761719 59.347656 42.890625 59.488281 C 42.9375 59.539062 44.03125 60.75 44.515625 62.859375 C 44.988281 64.917969 47.234375 65.363281 47.1875 67.476562 C 47.183594 67.554688 47.121094 67.617188 47.042969 67.617188 Z M 47.042969 67.617188"/><path fill="#963633" d="M 50.507812 71.574219 L 51.421875 67.09375 L 45.464844 67.09375 L 46.375 71.574219 C 46.429688 71.847656 46.671875 72.042969 46.949219 72.042969 L 49.933594 72.042969 C 50.214844 72.042969 50.453125 71.847656 50.507812 71.574219 Z M 50.507812 71.574219"/><path fill="#AA4944" d="M 51.625 66.066406 L 45.261719 66.066406 C 45.097656 66.066406 44.964844 66.199219 44.964844 66.359375 L 44.964844 67.046875 C 44.964844 67.210938 45.097656 67.34375 45.261719 67.34375 L 51.625 67.34375 C 51.785156 67.34375 51.917969 67.210938 51.917969 67.046875 L 51.917969 66.359375 C 51.917969 66.199219 51.785156 66.066406 51.625 66.066406 Z M 51.625 66.066406"/><g clip-path="url(#d)"><path fill="#D1DCF8" d="M 91.894531 72.042969 L 7.371094 72.042969 C 6.695312 72.042969 6.148438 72.59375 6.148438 73.265625 L 6.148438 73.269531 C 6.148438 73.945312 6.695312 74.492188 7.371094 74.492188 L 91.894531 74.492188 C 92.570312 74.492188 93.117188 73.945312 93.117188 73.269531 L 93.117188 73.265625 C 93.117188 72.59375 92.570312 72.042969 91.894531 72.042969 Z M 91.894531 72.042969"/></g><path fill="#38297A" d="M 34.761719 48.308594 C 34.667969 48.308594 34.589844 48.230469 34.589844 48.136719 L 34.589844 45.335938 C 34.589844 45.242188 34.667969 45.164062 34.761719 45.164062 L 37.921875 45.164062 L 37.921875 43.496094 L 35.289062 43.496094 C 35.195312 43.496094 35.117188 43.414062 35.117188 43.320312 C 35.117188 43.226562 35.195312 43.148438 35.289062 43.148438 L 38.097656 43.148438 C 38.191406 43.148438 38.269531 43.226562 38.269531 43.320312 L 38.269531 45.335938 C 38.269531 45.433594 38.191406 45.511719 38.097656 45.511719 L 34.9375 45.511719 L 34.9375 48.136719 C 34.9375 48.230469 34.855469 48.308594 34.761719 48.308594 Z M 34.761719 48.308594"/><path fill="#EA7D20" d="M 37.128906 40.363281 L 37.128906 43.414062 L 32.410156 43.414062 L 32.410156 46.953125 C 32.410156 47.507812 31.960938 47.960938 31.402344 47.960938 L 30.367188 47.960938 C 29.808594 47.960938 29.359375 47.507812 29.359375 46.953125 L 29.359375 40.363281 C 29.359375 39.808594 29.808594 39.351562 30.367188 39.351562 L 36.121094 39.351562 C 36.679688 39.351562 37.128906 39.808594 37.128906 40.363281 Z M 37.128906 40.363281"/><path fill="#EE984F" d="M 36.796875 42.433594 L 32.726562 42.433594 C 32.542969 42.433594 32.394531 42.582031 32.394531 42.765625 L 32.394531 43.875 C 32.394531 44.058594 32.542969 44.207031 32.726562 44.207031 L 36.796875 44.207031 C 36.980469 44.207031 37.128906 44.058594 37.128906 43.875 L 37.128906 42.765625 C 37.128906 42.582031 36.980469 42.433594 36.796875 42.433594 Z M 36.796875 42.433594"/><path fill="#38297A" d="M 35.289062 47.015625 L 34.234375 47.015625 C 34.050781 47.015625 33.898438 47.164062 33.898438 47.351562 L 33.898438 51.890625 C 33.898438 52.078125 34.050781 52.230469 34.234375 52.230469 L 35.289062 52.230469 C 35.476562 52.230469 35.625 52.078125 35.625 51.890625 L 35.625 47.351562 C 35.625 47.164062 35.476562 47.015625 35.289062 47.015625 Z M 35.289062 47.015625"/><path fill="#F4A998" d="M 22.054688 48.925781 L 21.828125 51.789062 L 22.40625 53.03125 C 19.234375 54.125 17.488281 53.53125 17.746094 50.5625 L 18.726562 47.789062 L 21.074219 44.847656 L 21.683594 46.410156 Z M 22.054688 48.925781"/><path fill="#F2C3B3" d="M 11.804688 57.558594 L 14.25 59.378906 C 14.230469 59.605469 13.304688 62.042969 13.304688 62.042969 L 15.921875 62.613281 L 15.921875 65.046875 C 13.773438 64.992188 10.960938 64.621094 10.0625 63.152344 C 9.015625 61.449219 11.804688 57.558594 11.804688 57.558594 Z M 11.804688 57.558594"/><path fill="#5CB8FC" d="M 25.511719 72.011719 C 24.949219 67.308594 25.113281 60.742188 25.40625 53.859375 L 23.46875 52.632812 L 21.828125 51.789062 C 19.214844 52.554688 17.992188 50.902344 17.929688 50.5625 L 13.75 53.617188 L 14.140625 72.011719 Z M 25.511719 72.011719"/><path fill="#F2C3B3" d="M 35.691406 48.308594 C 35.214844 48.171875 34.324219 49.191406 34.324219 49.191406 C 34.324219 49.191406 33.949219 47.964844 33.605469 47.988281 C 32.984375 48.03125 33.773438 49.332031 33.421875 50.140625 C 33.390625 50.214844 33.324219 50.300781 33.226562 50.398438 C 32.96875 50.65625 32.734375 50.941406 32.558594 51.261719 L 29.59375 56.632812 C 29.59375 56.632812 26.800781 55.324219 26.585938 55.25 L 24.21875 57.164062 C 24.21875 57.164062 28.277344 60.539062 30.191406 59.953125 C 32.332031 59.292969 33.417969 54.742188 33.804688 52.683594 C 33.886719 52.242188 34.144531 51.851562 34.519531 51.597656 L 35.523438 50.921875 C 35.914062 50.660156 36.492188 50.324219 36.585938 49.878906 C 36.726562 49.214844 36.195312 48.457031 35.691406 48.308594 Z M 35.691406 48.308594"/><path fill="#5CB8FC" d="M 23.246094 52.617188 C 24.15625 53.054688 26.085938 53.820312 27.773438 55.597656 C 27.78125 56.921875 27.035156 58.328125 25.851562 59.183594 C 25.851562 59.183594 22.25 56.191406 22.566406 52.996094 C 22.601562 52.667969 22.949219 52.472656 23.246094 52.617188 Z M 23.246094 52.617188"/><path fill="#5CB8FC" d="M 14.476562 53.085938 C 14.476562 53.085938 12.683594 53.871094 11.4375 57.671875 C 11.8125 58.941406 12.9375 60.070312 14.316406 60.542969 C 14.316406 60.542969 16.460938 56.4375 14.476562 53.085938 Z M 14.476562 53.085938"/><path fill="#F2C3B3" d="M 24.882812 47.707031 C 24.863281 47.609375 24.550781 46.855469 24.574219 46.515625 C 24.683594 45.035156 24.953125 43.367188 24.289062 42.800781 C 23.460938 42.09375 20.015625 43.519531 20.015625 43.519531 L 18.921875 47.351562 C 18.921875 47.351562 21.601562 51.15625 22.96875 50.429688 C 23.613281 50.085938 24.082031 48.707031 24.226562 48.050781 C 24.265625 48.03125 24.960938 48.175781 24.882812 47.707031 Z M 24.882812 47.707031"/><path fill="#20154F" d="M 24.0625 48.617188 C 24.023438 48.742188 23.984375 48.863281 23.941406 48.980469 C 23.941406 48.980469 23.652344 48.882812 23.507812 48.480469 C 23.507812 48.480469 23.671875 48.574219 24.0625 48.617188 Z M 24.0625 48.617188"/><path fill="#20154F" d="M 24.371094 45.664062 C 24.371094 45.75 24.351562 45.824219 24.3125 45.886719 C 24.273438 45.949219 24.222656 45.980469 24.164062 45.980469 C 24.101562 45.984375 24.050781 45.953125 24.007812 45.894531 C 23.964844 45.835938 23.941406 45.761719 23.9375 45.679688 C 23.933594 45.59375 23.953125 45.519531 23.996094 45.457031 C 24.035156 45.394531 24.085938 45.363281 24.144531 45.363281 C 24.203125 45.359375 24.253906 45.390625 24.300781 45.449219 C 24.34375 45.507812 24.367188 45.578125 24.371094 45.664062 Z M 24.371094 45.664062"/><path fill="#20154F" d="M 23.722656 45.144531 C 23.691406 45.109375 23.691406 45.054688 23.726562 45.023438 C 23.925781 44.847656 24.203125 44.8125 24.429688 44.9375 C 24.46875 44.960938 24.484375 45.011719 24.464844 45.054688 C 24.441406 45.09375 24.390625 45.109375 24.347656 45.085938 C 24.183594 44.996094 23.984375 45.023438 23.839844 45.152344 C 23.804688 45.183594 23.75 45.179688 23.722656 45.144531 Z M 23.722656 45.144531"/><path fill="#20154F" d="M 14.492188 52.335938 C 16.929688 47.890625 14.851562 42.507812 18.5 41.117188 C 20.738281 40.265625 22.960938 40.429688 24.269531 41.011719 C 25.121094 41.390625 25.320312 42.539062 24.597656 43.128906 C 24.546875 43.171875 24.5 43.203125 24.46875 43.214844 C 23.421875 43.597656 22.691406 44.429688 22.1875 45.320312 C 21.382812 46.753906 21.132812 48.433594 21.375 50.058594 L 21.777344 52.753906 C 21.804688 52.945312 21.695312 53.132812 21.507812 53.191406 C 19.507812 53.800781 16.9375 53.503906 14.738281 52.90625 C 14.496094 52.839844 14.371094 52.558594 14.492188 52.335938 Z M 14.492188 52.335938"/></svg>