<svg id="Camada_1" data-name="Camada 1" xmlns="http://www.w3.org/2000/svg" viewBox="0 0 765.03 180.44"><defs><style>.cls-1{fill:#32a457;}.cls-1,.cls-2,.cls-4{fill-rule:evenodd;}.cls-2{fill:#808183;}.cls-3{fill:#f2ca30;}.cls-4{fill:#fff;}</style></defs><title>novo logo horizontal</title><path class="cls-1" d="M151.16,185.29,47.74,154.92a23.5,23.5,0,0,1-15.89-29.08L62.22,22.41A23.22,23.22,0,0,1,91,6.72L194.38,37.08a23.51,23.51,0,0,1,15.89,29.09L179.9,169.59A23.23,23.23,0,0,1,151.16,185.29Z" transform="translate(-29.28 -5.78)"/><path class="cls-1" d="M237,47.58l-6.35,87.75H240l6.34-87.75ZM264,70.27h-8.27L251,135.33h8.26L262.17,95a17.93,17.93,0,0,1,7.22-13.66,23.51,23.51,0,0,1,14.59-5,14.59,14.59,0,0,1,9.43,3c2.44,2,3.52,4.81,3.26,8.49l-3.44,47.59h8.26l3-41.32a16.83,16.83,0,0,1,7-13.05,23.61,23.61,0,0,1,14.24-4.66,16.71,16.71,0,0,1,9.84,2.76,8.11,8.11,0,0,1,3.57,7.74l-3.51,48.53h8.26l3.59-49.58q.57-7.87-5-12.14t-14.06-4.26a32,32,0,0,0-13.86,3.15,23.05,23.05,0,0,0-10.24,9.18,16.7,16.7,0,0,0-7.4-9.29,23.72,23.72,0,0,0-12.17-3,28.86,28.86,0,0,0-13.14,3.06,17.26,17.26,0,0,0-8.4,8.22L264,70.27Zm121.5-1q-14.82,0-24.17,10.49a40.07,40.07,0,0,0-10.36,24.4q-1,13.77,6.82,23.54t23.83,9.77q14.94,0,23.93-9.9a38.2,38.2,0,0,0,10-23.54q1-14-6.76-24.4T385.46,69.22ZM385,75.39q11.67,0,18,9a31.07,31.07,0,0,1,5.52,20.72,30,30,0,0,1-7.64,18.56q-6.84,7.54-18.91,7.54-11.41,0-17.53-8.79a30.6,30.6,0,0,1-5.28-20.33,31.79,31.79,0,0,1,7.53-18.89q6.72-7.86,18.27-7.86Zm47,2.09a69,69,0,0,1,19.11-3.14q12.33,0,18.89,6.36t5.68,18.43q-1.28,17.7-8,24.39a22.85,22.85,0,0,1-16.81,6.69q-10.64,0-16.17-6.82t-4.73-18l2-27.94ZM426,47.58l-6.35,87.75h8.26l.83-11.41a22.34,22.34,0,0,0,9.7,9.18,30.64,30.64,0,0,0,14.31,3.41A29.42,29.42,0,0,0,473.52,128q9-8.52,10.25-25.71,1.32-18.36-7.49-26.1t-22.72-7.74a59.21,59.21,0,0,0-11.43,1.12,49.83,49.83,0,0,0-9.71,2.82l1.79-24.79Zm64.63,0-.6,8.26h10.36l.6-8.26ZM490,70.27l-4.7,65.06h8.26l4.71-65.06Z" transform="translate(-29.28 -5.78)"/><path class="cls-1" d="M510.05,47.58l-6.34,87.75H547q14.29,0,22.41-7A23,23,0,0,0,573.17,98a19,19,0,0,0-13.72-8,22.89,22.89,0,0,0,12.22-7.47,21.2,21.2,0,0,0,5.08-12.33,18.83,18.83,0,0,0-5.7-15.48q-7.21-7.08-20.73-7.08Zm16,36.07,1.71-23.74h16.53q6.42,0,10.24,3.47t3.5,7.81a12.55,12.55,0,0,1-4.63,8.72,15.83,15.83,0,0,1-10.83,3.74ZM523.22,123l1.87-25.84h18.49q7.09,0,11,3.93a11.23,11.23,0,0,1,3.54,9q-.36,5-5,8.92A17,17,0,0,1,541.72,123Zm60.57-52.73-4.7,65.06h18.62l2.76-38.17q.56-7.6,6.47-11.41a20.92,20.92,0,0,1,11.36-3,25.43,25.43,0,0,1,3.53.26q1.81.27,3.36.66l-1.06-14.43a33.48,33.48,0,0,0-6.76-.79q-10.23,0-16.52,9l.52-7.21Zm48.27,3.15a94.58,94.58,0,0,1,13.27-3.08,90.55,90.55,0,0,1,14.44-1.12q11.81,0,18.64,3.54,8.08,4.2,7.45,13l-3.58,49.58H664.83l2.39-33.06q-3.56,2.1-13.87,5-14.73,4.2-15.26,11.54a5.79,5.79,0,0,0,2.74,5.64,13.11,13.11,0,0,0,7.33,2,27.67,27.67,0,0,0,6.62-.86,17.53,17.53,0,0,0,4.71-1.63l-2.92,11.41a57.21,57.21,0,0,1-14.32,2.09q-11.67,0-17.64-6.29a16.64,16.64,0,0,1-4.56-13.25q.78-10.62,13-16.13,3.39-1.57,22.23-6.43,11.91-3.15,12.26-8a5.7,5.7,0,0,0-2.77-5.25q-3-2.08-8.25-2.09A56.45,56.45,0,0,0,644,81.62a105.75,105.75,0,0,0-13.74,4.13l1.81-12.33Zm105.51-3.15A69.7,69.7,0,0,0,719.76,68q-11.28,0-18.08,3.41-8.31,4.2-8.92,12.72-.53,7.22,5.79,14.3,1.34,1.44,12.07,10.76c4.45,3.84,6.58,6.9,6.42,9.18a4.83,4.83,0,0,1-3.18,4.13,19.24,19.24,0,0,1-8,1.38,36.4,36.4,0,0,1-9.81-1.38,29.07,29.07,0,0,1-8.45-3.74l1.06,14.43A69.58,69.58,0,0,0,710,136.51q13.24,0,20.2-4.53a15.65,15.65,0,0,0,7.53-12.52q.48-6.69-6.07-14-1.46-1.58-12.3-11.28-6.66-5.9-6.41-9.31.35-4.72,9.13-4.72a46.84,46.84,0,0,1,16.66,3.54l-1.13-13.38Zm10.15-24.79-1,13.38h18.62l1-13.38Zm-1.79,24.79-4.7,65.06h18.62l4.71-65.06ZM794.3,46.53H775.68l-6.42,88.8h18.62Z" transform="translate(-29.28 -5.78)"/><path class="cls-2" d="M297.41,169.88a3.38,3.38,0,0,1-1.32,2.69,5.05,5.05,0,0,1-3,.84,10.78,10.78,0,0,1-2.8-.41,9.82,9.82,0,0,1-2.42-1L288,174a8.22,8.22,0,0,0,2.5.74,22.13,22.13,0,0,0,3.43.23,5.61,5.61,0,0,0,3.83-1.4,4.64,4.64,0,0,0,1.74-3.19,5.72,5.72,0,0,0-2.08-4.51q-2.13-1.74-4.34-3.64T291,158.34a3,3,0,0,1,1.15-2.1,4.57,4.57,0,0,1,3-.88,15.75,15.75,0,0,1,4.22.64l-.13-1.68a14.54,14.54,0,0,0-1.91-.3,17.65,17.65,0,0,0-2-.16,9.47,9.47,0,0,0-4.45,1,3.78,3.78,0,0,0-2,3.37c-.11,1.42.6,2.9,2.11,4.44l4.34,3.82c1.48,1.31,2.18,2.45,2.11,3.43Zm6.62-15.8-.14,1.92h2.41l.14-1.92Zm-.14,5.26-1.09,15.11h1.92l1.09-15.11Zm8.88-3.1-1.89-.06-.26,3.16h-1.91l-.11,1.44h1.92l-.85,11.75a1.67,1.67,0,0,0,1,1.69,5.29,5.29,0,0,0,2.47.56,6.86,6.86,0,0,0,1.86-.24,1.72,1.72,0,0,0,1-.58l.09-1.19a12.67,12.67,0,0,1-1.36.49,4.51,4.51,0,0,1-1.22.18,2,2,0,0,1-1.41-.5,1.94,1.94,0,0,1-.45-1.6l.77-10.56h4.29l.1-1.44h-4.29l.23-3.1Zm16.33,8.61h-9.32a7.31,7.31,0,0,1,1.55-3.24q1.13-1.32,4.05-1.32a3.62,3.62,0,0,1,2.86,1.17,4.48,4.48,0,0,1,.86,3.39Zm-11.62,1.92c-.19,2.7.37,4.73,1.7,6.09a7.33,7.33,0,0,0,5.51,2,16.12,16.12,0,0,0,4.47-.7l.36-1.67a21.53,21.53,0,0,1-2.41.67,11.45,11.45,0,0,1-2.35.27,5.19,5.19,0,0,1-4.09-1.69q-1.51-1.69-1.21-5.74h11.47l.13-.91a5.93,5.93,0,0,0-1.39-4.42,5.45,5.45,0,0,0-4.4-1.85,7.76,7.76,0,0,0-5.19,2,8.23,8.23,0,0,0-2.6,6ZM342,159.59a12.28,12.28,0,0,0-3-.37,8.09,8.09,0,0,0-3.76.78,2.68,2.68,0,0,0-1.61,2.27,3.54,3.54,0,0,0,.79,2.74c.61.67,1.72,1.71,3.31,3.12s2.36,2.44,2.32,3.09a2.17,2.17,0,0,1-.9,1.51,3.7,3.7,0,0,1-2.37.68,11.11,11.11,0,0,1-2.32-.27,12,12,0,0,1-2-.61l.13,1.67a11,11,0,0,0,1.87.44,13.9,13.9,0,0,0,2.13.17,7.55,7.55,0,0,0,3.78-.85,3.32,3.32,0,0,0,1.63-2.86,3.09,3.09,0,0,0-.8-2.52c-.62-.61-1.72-1.57-3.31-2.86s-2.37-2.21-2.33-2.78a2.15,2.15,0,0,1,.92-1.8,4.19,4.19,0,0,1,2.2-.52,9.64,9.64,0,0,1,1.83.17,10.49,10.49,0,0,1,1.66.47l-.13-1.67Zm12.66.48-1.52,21.07h1.68l.65-9.1a6.09,6.09,0,0,0,2,2,5.85,5.85,0,0,0,3.24.87,6.53,6.53,0,0,0,5.27-2.16,9.27,9.27,0,0,0,2.07-5.48q.32-4.32-1.56-6.18c-1.25-1.24-3.17-1.86-5.74-1.86a18.47,18.47,0,0,0-3.42.28c-1,.18-1.89.38-2.68.6Zm1.58,1.44a17.9,17.9,0,0,1,2.13-.83,7,7,0,0,1,1.93-.24,7.7,7.7,0,0,1,4.43,1.29q1.9,1.31,1.65,4.77a10,10,0,0,1-1.68,5.17,4.62,4.62,0,0,1-4,2,4.28,4.28,0,0,1-3.78-1.94,6.58,6.58,0,0,1-1.16-4.27l.44-6Zm24.67,12.94h1.91l.84-11.51a2.83,2.83,0,0,0-1.53-2.9,9.12,9.12,0,0,0-4.35-.91,17.56,17.56,0,0,0-2.54.18,20.08,20.08,0,0,0-2.38.52l-.34,1.68a11.39,11.39,0,0,1,2.46-.72,15.14,15.14,0,0,1,2.85-.29,6.48,6.48,0,0,1,2.92.56,1.8,1.8,0,0,1,1,1.88c-.08,1.07-1.06,1.89-2.94,2.45s-3.71,1.09-5.51,1.6q-3,1.27-3.15,3.86a3.22,3.22,0,0,0,1.33,3.17,6.48,6.48,0,0,0,3.64,1,11.37,11.37,0,0,0,2-.15,16.79,16.79,0,0,0,1.67-.39l.35-1.44a9.81,9.81,0,0,1-3.36.58,6.17,6.17,0,0,1-2.72-.53,1.64,1.64,0,0,1-1-1.72q.18-2.57,4.42-3.85a25.49,25.49,0,0,0,5.1-1.9l-.64,8.86Zm8.76-15.11h-1.92l-1.09,15.11h1.92l.64-8.86a5,5,0,0,1,1.82-3.67,5.09,5.09,0,0,1,3.26-1.39,1.71,1.71,0,0,1,1,.25l-.12-1.68a3.74,3.74,0,0,0-1-.12,4.69,4.69,0,0,0-2.53.76,7.45,7.45,0,0,0-2.22,2.25l.19-2.65Zm16.87,15.11h1.92l.83-11.51a2.81,2.81,0,0,0-1.53-2.9,9.11,9.11,0,0,0-4.34-.91,17.46,17.46,0,0,0-2.54.18,19.82,19.82,0,0,0-2.39.52l-.33,1.68a11.39,11.39,0,0,1,2.46-.72,15.06,15.06,0,0,1,2.85-.29,6.41,6.41,0,0,1,2.91.56,1.79,1.79,0,0,1,1,1.88c-.08,1.07-1.05,1.89-2.93,2.45s-3.72,1.09-5.52,1.6q-3,1.27-3.14,3.86a3.2,3.2,0,0,0,1.32,3.17,6.51,6.51,0,0,0,3.65,1,11.45,11.45,0,0,0,2-.15c.55-.1,1.11-.23,1.67-.39l.35-1.44a9.9,9.9,0,0,1-3.36.58,6.14,6.14,0,0,1-2.72-.53,1.64,1.64,0,0,1-1-1.72c.12-1.71,1.6-3,4.42-3.85a25.49,25.49,0,0,0,5.1-1.9l-.64,8.86Zm15.84-20.37-1.47,20.37H423l1.47-20.37Zm8.24,5.26h-1.92l-1.09,15.11h1.92l.67-9.37a4.16,4.16,0,0,1,1.68-3.17,5.45,5.45,0,0,1,3.39-1.17,3.33,3.33,0,0,1,2.18.69,2.17,2.17,0,0,1,.76,2l-.8,11h1.92l.69-9.6a3.94,3.94,0,0,1,1.62-3,5.5,5.5,0,0,1,3.31-1.09,3.93,3.93,0,0,1,2.28.64,1.88,1.88,0,0,1,.83,1.8l-.81,11.27h1.91l.84-11.51a3.06,3.06,0,0,0-1.16-2.82,5.17,5.17,0,0,0-3.26-1,7.43,7.43,0,0,0-3.22.73A5.34,5.34,0,0,0,440,162a3.88,3.88,0,0,0-1.72-2.15,5.43,5.43,0,0,0-2.83-.71,6.74,6.74,0,0,0-3,.71,4.07,4.07,0,0,0-2,1.91l.18-2.41Zm30.19-.24a7.13,7.13,0,0,0-5.61,2.44,9.31,9.31,0,0,0-2.41,5.66,7.56,7.56,0,0,0,1.59,5.46,6.63,6.63,0,0,0,5.53,2.27,7.1,7.1,0,0,0,5.55-2.3,8.82,8.82,0,0,0,2.31-5.46,8.08,8.08,0,0,0-1.57-5.66,6.29,6.29,0,0,0-5.39-2.41Zm-.11,1.43a4.81,4.81,0,0,1,4.19,2.1,7.24,7.24,0,0,1,1.28,4.81,6.93,6.93,0,0,1-1.77,4.31A5.62,5.62,0,0,1,460,173.5a4.66,4.66,0,0,1-4.07-2,7.09,7.09,0,0,1-1.23-4.72,7.44,7.44,0,0,1,1.75-4.38,5.29,5.29,0,0,1,4.24-1.83Zm12.91.49a15.87,15.87,0,0,1,4.44-.73,6.07,6.07,0,0,1,4.38,1.47,5.18,5.18,0,0,1,1.32,4.28q-.3,4.11-1.86,5.67a5.32,5.32,0,0,1-3.9,1.55,4.55,4.55,0,0,1-3.75-1.59,5.67,5.67,0,0,1-1.1-4.17l.47-6.48Zm-1.42-6.94-1.47,20.37h1.92l.19-2.65a5.17,5.17,0,0,0,2.25,2.13,7.07,7.07,0,0,0,3.32.79,6.8,6.8,0,0,0,4.83-2,8.73,8.73,0,0,0,2.38-6q.31-4.26-1.74-6.06a7.72,7.72,0,0,0-5.27-1.79,13.08,13.08,0,0,0-2.65.26,11.82,11.82,0,0,0-2.26.65l.42-5.75Zm17,0L489,156h2.41l.14-1.92Zm-.14,5.26-1.09,15.11h1.92l1.09-15.11Zm8.54-5.26h-1.67l-1.47,20.37h1.67l1.47-20.37Zm4.08,0-.14,1.92h2.41l.14-1.92Zm-.13,5.26-1.1,15.11h1.92l1.09-15.11Zm15,15.11h1.92l.83-11.51a2.82,2.82,0,0,0-1.53-2.9,9.12,9.12,0,0,0-4.35-.91,17.56,17.56,0,0,0-2.54.18,20.08,20.08,0,0,0-2.38.52l-.33,1.68a11.45,11.45,0,0,1,2.45-.72,15.16,15.16,0,0,1,2.86-.29,6.44,6.44,0,0,1,2.91.56,1.8,1.8,0,0,1,1,1.88c-.08,1.07-1,1.89-2.93,2.45s-3.72,1.09-5.52,1.6q-3,1.27-3.14,3.86A3.2,3.2,0,0,0,507,174a6.48,6.48,0,0,0,3.64,1,11.29,11.29,0,0,0,2-.15,17,17,0,0,0,1.68-.39l.34-1.44a9.81,9.81,0,0,1-3.36.58,6.12,6.12,0,0,1-2.71-.53,1.64,1.64,0,0,1-1-1.72c.12-1.71,1.6-3,4.42-3.85a25.49,25.49,0,0,0,5.1-1.9l-.64,8.86Zm-.89-21L513.79,158h1.43l2.95-4.56Zm9.65,5.93h-1.92l-1.09,15.11h1.92l.64-8.86a5.52,5.52,0,0,1,5.09-5.06,1.69,1.69,0,0,1,1,.25l-.12-1.68a3.71,3.71,0,0,0-1-.12,4.72,4.72,0,0,0-2.54.76A7.45,7.45,0,0,0,525,162l.19-2.65Zm8.3-5.26-.14,1.92h2.41l.13-1.92Zm-.14,5.26-1.09,15.11h1.92l1.09-15.11Zm15,15.11h1.91l.84-11.51a2.83,2.83,0,0,0-1.53-2.9,9.12,9.12,0,0,0-4.35-.91,17.56,17.56,0,0,0-2.54.18,20.08,20.08,0,0,0-2.38.52l-.34,1.68a11.39,11.39,0,0,1,2.46-.72,15.14,15.14,0,0,1,2.85-.29,6.48,6.48,0,0,1,2.92.56,1.8,1.8,0,0,1,1,1.88c-.08,1.07-1.06,1.89-2.94,2.45s-3.71,1.09-5.51,1.6q-3,1.27-3.15,3.86a3.22,3.22,0,0,0,1.33,3.17,6.48,6.48,0,0,0,3.64,1,11.37,11.37,0,0,0,2-.15,16.79,16.79,0,0,0,1.67-.39l.35-1.44a9.81,9.81,0,0,1-3.36.58,6.2,6.2,0,0,1-2.72-.53,1.64,1.64,0,0,1-1-1.72q.18-2.57,4.42-3.85a25.49,25.49,0,0,0,5.1-1.9l-.64,8.86Zm14.25-14.86a12.3,12.3,0,0,0-3-.37,8.08,8.08,0,0,0-3.75.78,2.68,2.68,0,0,0-1.61,2.27A3.54,3.54,0,0,0,555,165q.91,1,3.31,3.12t2.31,3.09a2.1,2.1,0,0,1-.9,1.51,3.67,3.67,0,0,1-2.36.68,11.11,11.11,0,0,1-2.32-.27,12,12,0,0,1-2-.61l.12,1.67a11.47,11.47,0,0,0,1.87.44,14.13,14.13,0,0,0,2.14.17,7.49,7.49,0,0,0,3.77-.85,3.32,3.32,0,0,0,1.64-2.86,3.06,3.06,0,0,0-.81-2.52c-.61-.61-1.71-1.57-3.31-2.86s-2.36-2.21-2.32-2.78a2.15,2.15,0,0,1,.92-1.8,4.16,4.16,0,0,1,2.2-.52,9.64,9.64,0,0,1,1.83.17,10.08,10.08,0,0,1,1.65.47l-.12-1.67Zm22.82,5.26h-9.32a7.31,7.31,0,0,1,1.55-3.24q1.13-1.32,4-1.32a3.58,3.58,0,0,1,2.85,1.17,4.44,4.44,0,0,1,.87,3.39Zm-11.62,1.92c-.19,2.7.37,4.73,1.7,6.09a7.33,7.33,0,0,0,5.51,2,16.12,16.12,0,0,0,4.47-.7l.36-1.67a21.53,21.53,0,0,1-2.41.67,11.45,11.45,0,0,1-2.35.27,5.19,5.19,0,0,1-4.09-1.69c-1-1.13-1.41-3-1.22-5.74h11.48l.13-.91a5.93,5.93,0,0,0-1.39-4.42,5.45,5.45,0,0,0-4.4-1.85,7.76,7.76,0,0,0-5.19,2,8.23,8.23,0,0,0-2.6,6Zm24.6-2.4q-.37,5.06,2.24,7.9c1.74,1.9,4.37,2.84,7.88,2.84a24.91,24.91,0,0,0,5.43-.66l.39-1.92a17,17,0,0,1-5.74,1.06,8.43,8.43,0,0,1-6.12-2.2c-1.51-1.48-2.16-3.82-1.92-7,.21-3,1.16-5.22,2.82-6.65a9.44,9.44,0,0,1,6.4-2.15,19.85,19.85,0,0,1,5.48.88l-.34-2.13a29.3,29.3,0,0,0-4.86-.49,12.33,12.33,0,0,0-8.21,2.58c-2,1.71-3.2,4.37-3.45,8Zm26.22-5.27a7.16,7.16,0,0,0-5.61,2.44,9.35,9.35,0,0,0-2.4,5.66,7.55,7.55,0,0,0,1.58,5.46,6.64,6.64,0,0,0,5.53,2.27,7.11,7.11,0,0,0,5.56-2.3,8.82,8.82,0,0,0,2.31-5.46,8.08,8.08,0,0,0-1.57-5.66,6.3,6.3,0,0,0-5.4-2.41Zm-.1,1.43a4.82,4.82,0,0,1,4.19,2.1,7.24,7.24,0,0,1,1.28,4.81,7,7,0,0,1-1.77,4.31,5.63,5.63,0,0,1-4.39,1.75,4.65,4.65,0,0,1-4.07-2,7.09,7.09,0,0,1-1.23-4.72,7.37,7.37,0,0,1,1.75-4.38,5.28,5.28,0,0,1,4.24-1.83Zm13-1.19H635.6l-1.09,15.11h1.91l.64-8.86a5.52,5.52,0,0,1,5.09-5.06,1.73,1.73,0,0,1,1,.25L643,159.1a3.66,3.66,0,0,0-1-.12,4.75,4.75,0,0,0-2.54.76,7.45,7.45,0,0,0-2.22,2.25l.2-2.65Zm10.07,0h-1.91l-1.1,15.11h1.92l.64-8.86a5.52,5.52,0,0,1,5.09-5.06,1.69,1.69,0,0,1,1,.25l-.12-1.68a3.71,3.71,0,0,0-1-.12,4.72,4.72,0,0,0-2.54.76A7.45,7.45,0,0,0,647.4,162l.19-2.65Zm17.32,5.51H655.6a7.3,7.3,0,0,1,1.54-3.24c.76-.88,2.11-1.32,4.06-1.32a3.61,3.61,0,0,1,2.85,1.17,4.48,4.48,0,0,1,.86,3.39Zm-11.61,1.92a8.19,8.19,0,0,1,2.59-6,7.8,7.8,0,0,1,5.2-2,5.48,5.48,0,0,1,4.4,1.85,5.92,5.92,0,0,1,1.38,4.42l-.12.91H655.27c-.2,2.7.21,4.61,1.21,5.74a5.21,5.21,0,0,0,4.1,1.69,11.53,11.53,0,0,0,2.35-.27,22,22,0,0,0,2.4-.67L665,174.2a16.12,16.12,0,0,1-4.47.7,7.33,7.33,0,0,1-5.51-2c-1.32-1.36-1.89-3.39-1.69-6.09ZM673,156.24l-1.89-.06-.26,3.16h-1.91l-.11,1.44h1.92l-.85,11.75a1.67,1.67,0,0,0,1,1.69,5.29,5.29,0,0,0,2.47.56,6.86,6.86,0,0,0,1.86-.24,1.72,1.72,0,0,0,1-.58l.09-1.19a12.67,12.67,0,0,1-1.36.49,4.51,4.51,0,0,1-1.22.18,2,2,0,0,1-1.41-.5,1.94,1.94,0,0,1-.45-1.6l.77-10.56H677l.1-1.44h-4.29l.23-3.1Zm12.7,2.86a7.13,7.13,0,0,0-5.61,2.44,9.31,9.31,0,0,0-2.41,5.66,7.56,7.56,0,0,0,1.59,5.46,6.63,6.63,0,0,0,5.53,2.27,7.1,7.1,0,0,0,5.55-2.3,8.89,8.89,0,0,0,2.32-5.46,8.18,8.18,0,0,0-1.57-5.66,6.32,6.32,0,0,0-5.4-2.41Zm-.1,1.43a4.81,4.81,0,0,1,4.18,2.1,7.19,7.19,0,0,1,1.28,4.81,6.93,6.93,0,0,1-1.77,4.31,5.62,5.62,0,0,1-4.39,1.75,4.66,4.66,0,0,1-4.07-2,7.14,7.14,0,0,1-1.23-4.72,7.44,7.44,0,0,1,1.75-4.38,5.3,5.3,0,0,1,4.25-1.83Zm13-1.19H696.7l-1.09,15.11h1.92l.64-8.86a5,5,0,0,1,1.82-3.67,5.09,5.09,0,0,1,3.26-1.39,1.71,1.71,0,0,1,1,.25l-.12-1.68a3.74,3.74,0,0,0-1-.12,4.69,4.69,0,0,0-2.53.76,7.45,7.45,0,0,0-2.22,2.25l.19-2.65Zm17.32,5.51h-9.32a7.31,7.31,0,0,1,1.55-3.24q1.13-1.32,4.05-1.32a3.58,3.58,0,0,1,2.85,1.17,4.44,4.44,0,0,1,.87,3.39Zm-11.62,1.92a8.23,8.23,0,0,1,2.6-6,7.76,7.76,0,0,1,5.19-2,5.45,5.45,0,0,1,4.4,1.85,5.93,5.93,0,0,1,1.39,4.42l-.13.91H706.3q-.3,4.05,1.21,5.74a5.19,5.19,0,0,0,4.09,1.69,11.45,11.45,0,0,0,2.35-.27,21.53,21.53,0,0,0,2.41-.67L716,174.2a16.12,16.12,0,0,1-4.47.7,7.33,7.33,0,0,1-5.51-2c-1.33-1.36-1.89-3.39-1.7-6.09Zm24.48-7.18a12.28,12.28,0,0,0-3-.37A8.09,8.09,0,0,0,722,160a2.68,2.68,0,0,0-1.61,2.27,3.54,3.54,0,0,0,.79,2.74c.61.67,1.72,1.71,3.31,3.12s2.36,2.44,2.32,3.09a2.17,2.17,0,0,1-.9,1.51,3.7,3.7,0,0,1-2.37.68,11.11,11.11,0,0,1-2.32-.27,12,12,0,0,1-2-.61l.12,1.67a11.36,11.36,0,0,0,1.88.44,13.9,13.9,0,0,0,2.13.17,7.55,7.55,0,0,0,3.78-.85,3.32,3.32,0,0,0,1.63-2.86,3.09,3.09,0,0,0-.8-2.52c-.62-.61-1.72-1.57-3.31-2.86s-2.37-2.21-2.33-2.78a2.15,2.15,0,0,1,.92-1.8,4.16,4.16,0,0,1,2.2-.52,9.64,9.64,0,0,1,1.83.17,10.49,10.49,0,0,1,1.66.47Z" transform="translate(-29.28 -5.78)"/><ellipse class="cls-3" cx="117.99" cy="89.81" rx="88.67" ry="63.48" transform="translate(-53.11 127.29) rotate(-54.24)"/><polygon class="cls-4" points="0 113.19 40.15 51.82 113.51 55.51 155.97 117.34 80.75 116.88 45.22 60.58 12.46 113.19 0 113.19"/></svg>